<svg width="1440" height="308" viewBox="0 0 1440 308" fill="none" xmlns="http://www.w3.org/2000/svg">
<path fill-rule="evenodd" clip-rule="evenodd" d="M0 271.999L21.6 241.998C43.2 211.998 87.6 151.996 130.8 133.995C174 115.995 218.4 139.996 261.6 133.995C306 127.995 349.2 91.9944 392.4 67.9938C436.8 43.9931 480 31.9928 523.2 55.9934C567.6 79.9941 610.8 139.996 654 169.996C698.4 199.997 741.6 199.997 786 187.997C829.2 175.997 872.4 151.996 916.8 157.996C960 163.996 1003.2 199.997 1047.6 211.998C1090.8 223.998 1134 211.998 1178.4 163.996C1221.6 115.995 1266 31.9928 1309.2 7.99219C1352.4 -16.0084 1396.8 19.9925 1418.4 37.993L1440 55.9934V308H1418.4C1396.8 308 1352.4 308 1309.2 308C1266 308 1221.6 308 1178.4 308C1134 308 1090.8 308 1047.6 308C1003.2 308 960 308 916.8 308C872.4 308 829.2 308 786 308C741.6 308 698.4 308 654 308C610.8 308 567.6 308 523.2 308C480 308 436.8 308 392.4 308C349.2 308 306 308 261.6 308C218.4 308 174 308 130.8 308C87.6 308 43.2 308 21.6 308H0V271.999Z" fill="#d7f0f4"/>
</svg>
